<svg fill="#0D131A" viewBox="0 0 133.423 21.528" height="100%" width="100%" xmlns="http://www.w3.org/2000/svg"><path preserveAspectRatio="none" d="M3.82 17.07L0 17.07L7.18 0.97L10.86 0.97L18.05 17.07L14.15 17.07L8.26 2.85L9.73 2.85L3.82 17.07ZM13.87 13.62L3.59 13.62L4.58 10.79L12.86 10.79L13.87 13.62ZM23.07 17.07L19.48 17.07L19.48 0L23.07 0L23.07 17.07ZM33.72 17.25L33.72 17.25Q32.08 17.25 30.91 16.56Q29.74 15.87 29.12 14.46Q28.50 13.04 28.50 10.88L28.50 10.88Q28.50 8.69 29.15 7.29Q29.81 5.89 30.98 5.20Q32.15 4.51 33.72 4.51L33.72 4.51Q35.47 4.51 36.86 5.29Q38.25 6.07 39.07 7.50Q39.88 8.92 39.88 10.88L39.88 10.88Q39.88 12.81 39.07 14.24Q38.25 15.66 36.86 16.46Q35.47 17.25 33.72 17.25ZM29.83 17.07L26.40 17.07L26.40 0L29.99 0L29.99 7.20L29.76 10.86L29.83 14.54L29.83 17.07ZM33.10 14.31L33.10 14.31Q33.99 14.31 34.70 13.89Q35.40 13.48 35.82 12.71Q36.25 11.94 36.25 10.88L36.25 10.88Q36.25 9.80 35.82 9.04Q35.40 8.28 34.70 7.87Q33.99 7.45 33.10 7.45L33.10 7.45Q32.20 7.45 31.49 7.87Q30.77 8.28 30.36 9.04Q29.95 9.80 29.95 10.88L29.95 10.88Q29.95 11.94 30.36 12.71Q30.77 13.48 31.49 13.89Q32.20 14.31 33.10 14.31ZM53.22 17.07L49.86 17.07L49.86 14.65L49.63 14.12L49.63 9.80Q49.63 8.65 48.93 8.00Q48.23 7.36 46.78 7.36L46.78 7.36Q45.79 7.36 44.84 7.67Q43.88 7.98 43.22 8.51L43.22 8.51L41.93 6.00Q42.94 5.29 44.37 4.90Q45.79 4.51 47.26 4.51L47.26 4.51Q50.09 4.51 51.66 5.84Q53.22 7.18 53.22 10.00L53.22 10.00L53.22 17.07ZM46.09 17.25L46.09 17.25Q44.64 17.25 43.61 16.76Q42.57 16.26 42.02 15.41Q41.47 14.56 41.47 13.50L41.47 13.50Q41.47 12.40 42.01 11.57Q42.55 10.74 43.72 10.27Q44.90 9.80 46.78 9.80L46.78 9.80L50.07 9.80L50.07 11.89L47.17 11.89Q45.91 11.89 45.44 12.30Q44.96 12.72 44.96 13.34L44.96 13.34Q44.96 14.03 45.51 14.43Q46.05 14.83 46.99 14.83L46.99 14.83Q47.89 14.83 48.60 14.41Q49.31 13.98 49.63 13.16L49.63 13.16L50.19 14.81Q49.79 16.01 48.76 16.63Q47.72 17.25 46.09 17.25ZM68.52 17.34L68.52 17.34Q66.58 17.34 64.81 16.82Q63.04 16.31 61.96 15.48L61.96 15.48L63.23 12.67Q64.26 13.41 65.68 13.88Q67.09 14.35 68.54 14.35L68.54 14.35Q69.64 14.35 70.32 14.13Q71.00 13.91 71.32 13.52Q71.64 13.13 71.64 12.63L71.64 12.63Q71.64 11.98 71.14 11.60Q70.63 11.22 69.80 10.98Q68.98 10.74 67.98 10.52Q66.98 10.30 65.98 9.98Q64.97 9.66 64.15 9.15Q63.32 8.65 62.80 7.82Q62.28 6.99 62.28 5.70L62.28 5.70Q62.28 4.32 63.03 3.19Q63.78 2.05 65.29 1.37Q66.79 0.69 69.07 0.69L69.07 0.69Q70.59 0.69 72.06 1.05Q73.53 1.40 74.66 2.12L74.66 2.12L73.51 4.94Q72.38 4.30 71.25 3.99Q70.13 3.68 69.05 3.68L69.05 3.68Q67.97 3.68 67.27 3.93Q66.58 4.19 66.29 4.59Q65.99 4.99 65.99 5.52L65.99 5.52Q65.99 6.14 66.49 6.52Q67.00 6.90 67.83 7.13Q68.66 7.36 69.66 7.59Q70.66 7.82 71.66 8.12Q72.66 8.42 73.48 8.92Q74.31 9.43 74.83 10.26Q75.35 11.09 75.35 12.35L75.35 12.35Q75.35 13.71 74.59 14.83Q73.83 15.96 72.32 16.65Q70.82 17.34 68.52 17.34ZM84.96 17.25L84.96 17.25Q83.40 17.25 82.22 16.56Q81.05 15.87 80.40 14.46Q79.74 13.04 79.74 10.88L79.74 10.88Q79.74 8.69 80.36 7.29Q80.98 5.89 82.16 5.20Q83.33 4.51 84.96 4.51L84.96 4.51Q86.71 4.51 88.10 5.30Q89.49 6.09 90.31 7.52Q91.13 8.95 91.13 10.88L91.13 10.88Q91.13 12.83 90.31 14.26Q89.49 15.69 88.10 16.47Q86.71 17.25 84.96 17.25ZM81.24 21.53L77.65 21.53L77.65 4.69L81.07 4.69L81.07 7.22L81.01 10.90L81.24 14.56L81.24 21.53ZM84.34 14.31L84.34 14.31Q85.24 14.31 85.94 13.89Q86.64 13.48 87.07 12.71Q87.49 11.94 87.49 10.88L87.49 10.88Q87.49 9.80 87.07 9.04Q86.64 8.28 85.94 7.87Q85.24 7.45 84.34 7.45L84.34 7.45Q83.44 7.45 82.73 7.87Q82.02 8.28 81.60 9.04Q81.19 9.80 81.19 10.88L81.19 10.88Q81.19 11.94 81.60 12.71Q82.02 13.48 82.73 13.89Q83.44 14.31 84.34 14.31ZM104.47 17.07L101.11 17.07L101.11 14.65L100.88 14.12L100.88 9.80Q100.88 8.65 100.18 8.00Q99.47 7.36 98.03 7.36L98.03 7.36Q97.04 7.36 96.08 7.67Q95.13 7.98 94.46 8.51L94.46 8.51L93.17 6.00Q94.18 5.29 95.61 4.90Q97.04 4.51 98.51 4.51L98.51 4.51Q101.34 4.51 102.90 5.84Q104.47 7.18 104.47 10.00L104.47 10.00L104.47 17.07ZM97.34 17.25L97.34 17.25Q95.89 17.25 94.85 16.76Q93.82 16.26 93.27 15.41Q92.71 14.56 92.71 13.50L92.71 13.50Q92.71 12.40 93.25 11.57Q93.79 10.74 94.97 10.27Q96.14 9.80 98.03 9.80L98.03 9.80L101.31 9.80L101.31 11.89L98.42 11.89Q97.15 11.89 96.68 12.30Q96.21 12.72 96.21 13.34L96.21 13.34Q96.21 14.03 96.75 14.43Q97.29 14.83 98.23 14.83L98.23 14.83Q99.13 14.83 99.84 14.41Q100.56 13.98 100.88 13.16L100.88 13.16L101.43 14.81Q101.04 16.01 100.00 16.63Q98.97 17.25 97.34 17.25ZM113.69 17.25L113.69 17.25Q111.69 17.25 110.12 16.43Q108.56 15.62 107.67 14.17Q106.79 12.72 106.79 10.88L106.79 10.88Q106.79 9.02 107.67 7.58Q108.56 6.14 110.12 5.32Q111.69 4.51 113.69 4.51L113.69 4.51Q115.64 4.51 117.09 5.32Q118.54 6.14 119.23 7.66L119.23 7.66L116.45 9.15Q115.97 8.28 115.24 7.87Q114.52 7.45 113.67 7.45L113.67 7.45Q112.75 7.45 112.01 7.87Q111.27 8.28 110.85 9.04Q110.42 9.80 110.42 10.88L110.42 10.88Q110.42 11.96 110.85 12.72Q111.27 13.48 112.01 13.89Q112.75 14.31 113.67 14.31L113.67 14.31Q114.52 14.31 115.24 13.90Q115.97 13.50 116.45 12.60L116.45 12.60L119.23 14.12Q118.54 15.62 117.09 16.43Q115.64 17.25 113.69 17.25ZM127.44 17.25L127.44 17.25Q125.33 17.25 123.73 16.42Q122.13 15.59 121.26 14.16Q120.38 12.72 120.38 10.88L120.38 10.88Q120.38 9.02 121.24 7.58Q122.11 6.14 123.60 5.32Q125.10 4.51 126.98 4.51L126.98 4.51Q128.80 4.51 130.26 5.28Q131.72 6.05 132.57 7.49Q133.42 8.92 133.42 10.92L133.42 10.92Q133.42 11.13 133.40 11.40Q133.38 11.66 133.35 11.89L133.35 11.89L123.30 11.89L123.30 9.80L131.47 9.80L130.09 10.42Q130.09 9.45 129.70 8.74Q129.31 8.03 128.62 7.62Q127.93 7.22 127.01 7.22L127.01 7.22Q126.09 7.22 125.38 7.62Q124.68 8.03 124.29 8.75Q123.90 9.48 123.90 10.46L123.90 10.46L123.90 11.02Q123.90 12.03 124.35 12.80Q124.80 13.57 125.61 13.97Q126.43 14.38 127.53 14.38L127.53 14.38Q128.52 14.38 129.27 14.08Q130.02 13.78 130.64 13.18L130.64 13.18L132.55 15.25Q131.70 16.21 130.41 16.73Q129.12 17.25 127.44 17.25Z"></path></svg>